<mxfile host="app.diagrams.net" agent="Mozilla/5.0 (X11; Ubuntu; Linux x86_64; rv:133.0) Gecko/20100101 Firefox/133.0" version="25.0.3">
  <diagram name="Страница — 1" id="pWL2CWbe-zxDe9L4tEUk">
    <mxGraphModel dx="2390" dy="1517" grid="0" gridSize="10" guides="1" tooltips="1" connect="1" arrows="1" fold="1" page="0" pageScale="1" pageWidth="827" pageHeight="1169" math="0" shadow="0">
      <root>
        <mxCell id="0" />
        <mxCell id="1" parent="0" />
        <mxCell id="drGPe8Ry7eNEMvqkn0kf-1" value="Person" style="swimlane;fontStyle=1;align=center;verticalAlign=top;childLayout=stackLayout;horizontal=1;startSize=26;horizontalStack=0;resizeParent=1;resizeParentMax=0;resizeLast=0;collapsible=1;marginBottom=0;whiteSpace=wrap;html=1;" parent="1" vertex="1">
          <mxGeometry x="1104" y="704" width="160" height="220" as="geometry" />
        </mxCell>
        <mxCell id="drGPe8Ry7eNEMvqkn0kf-2" value="&lt;div&gt;-id&lt;/div&gt;&lt;div&gt;-git&lt;br&gt;&lt;/div&gt;" style="text;strokeColor=none;fillColor=none;align=left;verticalAlign=top;spacingLeft=4;spacingRight=4;overflow=hidden;rotatable=0;points=[[0,0.5],[1,0.5]];portConstraint=eastwest;whiteSpace=wrap;html=1;" parent="drGPe8Ry7eNEMvqkn0kf-1" vertex="1">
          <mxGeometry y="26" width="160" height="44" as="geometry" />
        </mxCell>
        <mxCell id="drGPe8Ry7eNEMvqkn0kf-3" value="" style="line;strokeWidth=1;fillColor=none;align=left;verticalAlign=middle;spacingTop=-1;spacingLeft=3;spacingRight=3;rotatable=0;labelPosition=right;points=[];portConstraint=eastwest;strokeColor=inherit;" parent="drGPe8Ry7eNEMvqkn0kf-1" vertex="1">
          <mxGeometry y="70" width="160" height="8" as="geometry" />
        </mxCell>
        <mxCell id="drGPe8Ry7eNEMvqkn0kf-4" value="&lt;div&gt;+id&lt;/div&gt;&lt;div&gt;+git&lt;br&gt;&lt;/div&gt;&lt;div&gt;-id=&lt;br&gt;&lt;/div&gt;&lt;div&gt;-git=&lt;br&gt;&lt;/div&gt;&lt;div&gt;+self.is_git_valid?&lt;/div&gt;&lt;div&gt;+initials&lt;/div&gt;&lt;div&gt;+contact&lt;/div&gt;&lt;div&gt;+validate?&lt;br&gt;+is_name_valid?&lt;br&gt;&lt;/div&gt;" style="text;strokeColor=none;fillColor=none;align=left;verticalAlign=top;spacingLeft=4;spacingRight=4;overflow=hidden;rotatable=0;points=[[0,0.5],[1,0.5]];portConstraint=eastwest;whiteSpace=wrap;html=1;" parent="drGPe8Ry7eNEMvqkn0kf-1" vertex="1">
          <mxGeometry y="78" width="160" height="142" as="geometry" />
        </mxCell>
        <mxCell id="drGPe8Ry7eNEMvqkn0kf-5" style="edgeStyle=orthogonalEdgeStyle;rounded=0;orthogonalLoop=1;jettySize=auto;html=1;endArrow=block;endFill=0;endSize=12;" parent="1" source="drGPe8Ry7eNEMvqkn0kf-6" target="drGPe8Ry7eNEMvqkn0kf-3" edge="1">
          <mxGeometry relative="1" as="geometry" />
        </mxCell>
        <mxCell id="drGPe8Ry7eNEMvqkn0kf-6" value="Student" style="swimlane;fontStyle=1;align=center;verticalAlign=top;childLayout=stackLayout;horizontal=1;startSize=26;horizontalStack=0;resizeParent=1;resizeParentMax=0;resizeLast=0;collapsible=1;marginBottom=0;whiteSpace=wrap;html=1;" parent="1" vertex="1">
          <mxGeometry x="932" y="879" width="160" height="440" as="geometry" />
        </mxCell>
        <mxCell id="drGPe8Ry7eNEMvqkn0kf-7" value="&lt;div&gt;-surname&lt;/div&gt;&lt;div&gt;-name&lt;/div&gt;&lt;div&gt;-second_name&lt;/div&gt;&lt;div&gt;-phone&lt;/div&gt;&lt;div&gt;-telegram&lt;/div&gt;&lt;div&gt;-email&lt;/div&gt;&lt;div&gt;-unique_indicator&lt;br&gt;&lt;/div&gt;" style="text;strokeColor=none;fillColor=none;align=left;verticalAlign=top;spacingLeft=4;spacingRight=4;overflow=hidden;rotatable=0;points=[[0,0.5],[1,0.5]];portConstraint=eastwest;whiteSpace=wrap;html=1;" parent="drGPe8Ry7eNEMvqkn0kf-6" vertex="1">
          <mxGeometry y="26" width="160" height="108" as="geometry" />
        </mxCell>
        <mxCell id="drGPe8Ry7eNEMvqkn0kf-8" value="" style="line;strokeWidth=1;fillColor=none;align=left;verticalAlign=middle;spacingTop=-1;spacingLeft=3;spacingRight=3;rotatable=0;labelPosition=right;points=[];portConstraint=eastwest;strokeColor=inherit;" parent="drGPe8Ry7eNEMvqkn0kf-6" vertex="1">
          <mxGeometry y="134" width="160" height="8" as="geometry" />
        </mxCell>
        <mxCell id="drGPe8Ry7eNEMvqkn0kf-9" value="&lt;div&gt;+to_h&lt;/div&gt;&lt;div&gt;+&amp;lt;=&amp;gt;&lt;br&gt;&lt;/div&gt;&lt;div&gt;+get_info&lt;/div&gt;&lt;div&gt;-set_contacts&lt;/div&gt;&lt;div&gt;+self.is_phone_valid?&lt;/div&gt;&lt;div&gt;+self._is_email_vaild?&lt;/div&gt;&lt;div&gt;+self.is_telegram_valid?&lt;/div&gt;&lt;div&gt;+to_s&lt;/div&gt;&lt;div&gt;-set_fullname&lt;br&gt;&lt;/div&gt;&lt;div&gt;-phone=&lt;/div&gt;&lt;div&gt;-email=&lt;/div&gt;&lt;div&gt;-telegram=&lt;br&gt;&lt;/div&gt;&lt;div&gt;-name=&lt;/div&gt;&lt;div&gt;-surname=&lt;/div&gt;&lt;div&gt;-second_name=&lt;br&gt;&lt;/div&gt;&lt;div&gt;+surname&lt;br&gt;&lt;/div&gt;&lt;div&gt;+name&lt;/div&gt;&lt;div&gt;+second_name&lt;/div&gt;&lt;div&gt;+unique_indicator&lt;/div&gt;&lt;div&gt;-unique_indicator=&lt;br&gt;&lt;/div&gt;" style="text;strokeColor=none;fillColor=none;align=left;verticalAlign=top;spacingLeft=4;spacingRight=4;overflow=hidden;rotatable=0;points=[[0,0.5],[1,0.5]];portConstraint=eastwest;whiteSpace=wrap;html=1;" parent="drGPe8Ry7eNEMvqkn0kf-6" vertex="1">
          <mxGeometry y="142" width="160" height="298" as="geometry" />
        </mxCell>
        <mxCell id="drGPe8Ry7eNEMvqkn0kf-10" value="Student short" style="swimlane;fontStyle=1;align=center;verticalAlign=top;childLayout=stackLayout;horizontal=1;startSize=26;horizontalStack=0;resizeParent=1;resizeParentMax=0;resizeLast=0;collapsible=1;marginBottom=0;whiteSpace=wrap;html=1;" parent="1" vertex="1">
          <mxGeometry x="1254" y="934" width="160" height="140" as="geometry">
            <mxRectangle x="520" y="310" width="110" height="30" as="alternateBounds" />
          </mxGeometry>
        </mxCell>
        <mxCell id="drGPe8Ry7eNEMvqkn0kf-11" value="&lt;div&gt;-contact&lt;/div&gt;&lt;div&gt;-initials&lt;br&gt;&lt;/div&gt;" style="text;strokeColor=none;fillColor=none;align=left;verticalAlign=top;spacingLeft=4;spacingRight=4;overflow=hidden;rotatable=0;points=[[0,0.5],[1,0.5]];portConstraint=eastwest;whiteSpace=wrap;html=1;" parent="drGPe8Ry7eNEMvqkn0kf-10" vertex="1">
          <mxGeometry y="26" width="160" height="34" as="geometry" />
        </mxCell>
        <mxCell id="drGPe8Ry7eNEMvqkn0kf-12" value="" style="line;strokeWidth=1;fillColor=none;align=left;verticalAlign=middle;spacingTop=-1;spacingLeft=3;spacingRight=3;rotatable=0;labelPosition=right;points=[];portConstraint=eastwest;strokeColor=inherit;" parent="drGPe8Ry7eNEMvqkn0kf-10" vertex="1">
          <mxGeometry y="60" width="160" height="8" as="geometry" />
        </mxCell>
        <mxCell id="drGPe8Ry7eNEMvqkn0kf-13" value="&lt;div&gt;+self.from_student&lt;/div&gt;&lt;div&gt;+self.from_string&lt;/div&gt;&lt;div&gt;+self.parse_info&lt;br&gt;&lt;/div&gt;&lt;div&gt;+to_s&lt;/div&gt;&lt;div&gt;&lt;br&gt;&lt;/div&gt;" style="text;strokeColor=none;fillColor=none;align=left;verticalAlign=top;spacingLeft=4;spacingRight=4;overflow=hidden;rotatable=0;points=[[0,0.5],[1,0.5]];portConstraint=eastwest;whiteSpace=wrap;html=1;" parent="drGPe8Ry7eNEMvqkn0kf-10" vertex="1">
          <mxGeometry y="68" width="160" height="72" as="geometry" />
        </mxCell>
        <mxCell id="drGPe8Ry7eNEMvqkn0kf-14" style="edgeStyle=orthogonalEdgeStyle;rounded=0;orthogonalLoop=1;jettySize=auto;html=1;entryX=1.018;entryY=0.03;entryDx=0;entryDy=0;entryPerimeter=0;endArrow=block;endFill=0;endSize=12;" parent="1" source="drGPe8Ry7eNEMvqkn0kf-10" target="drGPe8Ry7eNEMvqkn0kf-4" edge="1">
          <mxGeometry relative="1" as="geometry" />
        </mxCell>
        <mxCell id="drGPe8Ry7eNEMvqkn0kf-15" value="Data_table" style="swimlane;fontStyle=1;align=center;verticalAlign=top;childLayout=stackLayout;horizontal=1;startSize=26;horizontalStack=0;resizeParent=1;resizeParentMax=0;resizeLast=0;collapsible=1;marginBottom=0;whiteSpace=wrap;html=1;" parent="1" vertex="1">
          <mxGeometry x="1884" y="1035" width="160" height="190" as="geometry" />
        </mxCell>
        <mxCell id="drGPe8Ry7eNEMvqkn0kf-16" value="-data (private)" style="text;strokeColor=none;fillColor=none;align=left;verticalAlign=top;spacingLeft=4;spacingRight=4;overflow=hidden;rotatable=0;points=[[0,0.5],[1,0.5]];portConstraint=eastwest;whiteSpace=wrap;html=1;" parent="drGPe8Ry7eNEMvqkn0kf-15" vertex="1">
          <mxGeometry y="26" width="160" height="26" as="geometry" />
        </mxCell>
        <mxCell id="drGPe8Ry7eNEMvqkn0kf-17" value="" style="line;strokeWidth=1;fillColor=none;align=left;verticalAlign=middle;spacingTop=-1;spacingLeft=3;spacingRight=3;rotatable=0;labelPosition=right;points=[];portConstraint=eastwest;strokeColor=inherit;" parent="drGPe8Ry7eNEMvqkn0kf-15" vertex="1">
          <mxGeometry y="52" width="160" height="8" as="geometry" />
        </mxCell>
        <mxCell id="drGPe8Ry7eNEMvqkn0kf-18" value="&lt;div&gt;&lt;b&gt;public:&lt;/b&gt;&lt;br&gt;&lt;/div&gt;&lt;div&gt;+initialize&lt;br&gt;&lt;/div&gt;&lt;div&gt;+count_of_rows&lt;/div&gt;&lt;div&gt;+count_of_columns&lt;/div&gt;&lt;div&gt;+get_by_index&lt;/div&gt;&lt;div&gt;&lt;b&gt;private:&lt;/b&gt;&lt;/div&gt;&lt;div&gt;-data=&lt;/div&gt;&lt;div&gt;+data&lt;br&gt;&lt;/div&gt;" style="text;strokeColor=none;fillColor=none;align=left;verticalAlign=top;spacingLeft=4;spacingRight=4;overflow=hidden;rotatable=0;points=[[0,0.5],[1,0.5]];portConstraint=eastwest;whiteSpace=wrap;html=1;" parent="drGPe8Ry7eNEMvqkn0kf-15" vertex="1">
          <mxGeometry y="60" width="160" height="130" as="geometry" />
        </mxCell>
        <mxCell id="drGPe8Ry7eNEMvqkn0kf-19" style="edgeStyle=orthogonalEdgeStyle;rounded=0;orthogonalLoop=1;jettySize=auto;html=1;entryX=-0.025;entryY=0.971;entryDx=0;entryDy=0;endArrow=none;endFill=0;startArrow=classic;startFill=1;dashed=1;exitX=0.906;exitY=1;exitDx=0;exitDy=0;exitPerimeter=0;entryPerimeter=0;" parent="1" source="drGPe8Ry7eNEMvqkn0kf-27" target="drGPe8Ry7eNEMvqkn0kf-61" edge="1">
          <mxGeometry relative="1" as="geometry">
            <mxPoint x="1553" y="966.6666666666667" as="targetPoint" />
            <Array as="points">
              <mxPoint x="1541" y="1265" />
              <mxPoint x="1540" y="1265" />
              <mxPoint x="1540" y="1640" />
            </Array>
            <mxPoint x="1500" y="1390" as="sourcePoint" />
          </mxGeometry>
        </mxCell>
        <mxCell id="drGPe8Ry7eNEMvqkn0kf-20" value="&amp;lt;&amp;lt;include&amp;gt;&amp;gt;" style="edgeLabel;html=1;align=center;verticalAlign=middle;resizable=0;points=[];" parent="drGPe8Ry7eNEMvqkn0kf-19" vertex="1" connectable="0">
          <mxGeometry x="0.2218" y="-1" relative="1" as="geometry">
            <mxPoint as="offset" />
          </mxGeometry>
        </mxCell>
        <mxCell id="drGPe8Ry7eNEMvqkn0kf-21" value="&lt;div&gt;Data_list&lt;/div&gt;" style="swimlane;fontStyle=1;align=center;verticalAlign=top;childLayout=stackLayout;horizontal=1;startSize=26;horizontalStack=0;resizeParent=1;resizeParentMax=0;resizeLast=0;collapsible=1;marginBottom=0;whiteSpace=wrap;html=1;" parent="1" vertex="1">
          <mxGeometry x="1622" y="1016" width="160" height="330" as="geometry" />
        </mxCell>
        <mxCell id="drGPe8Ry7eNEMvqkn0kf-22" value="&lt;div&gt;-list (private)&lt;/div&gt;&lt;div&gt;-selected_indexes (private)&lt;/div&gt;&lt;div&gt;-index&lt;br&gt;&lt;/div&gt;" style="text;strokeColor=none;fillColor=none;align=left;verticalAlign=top;spacingLeft=4;spacingRight=4;overflow=hidden;rotatable=0;points=[[0,0.5],[1,0.5]];portConstraint=eastwest;whiteSpace=wrap;html=1;" parent="drGPe8Ry7eNEMvqkn0kf-21" vertex="1">
          <mxGeometry y="26" width="160" height="54" as="geometry" />
        </mxCell>
        <mxCell id="drGPe8Ry7eNEMvqkn0kf-23" value="" style="line;strokeWidth=1;fillColor=none;align=left;verticalAlign=middle;spacingTop=-1;spacingLeft=3;spacingRight=3;rotatable=0;labelPosition=right;points=[];portConstraint=eastwest;strokeColor=inherit;" parent="drGPe8Ry7eNEMvqkn0kf-21" vertex="1">
          <mxGeometry y="80" width="160" height="8" as="geometry" />
        </mxCell>
        <mxCell id="drGPe8Ry7eNEMvqkn0kf-24" value="&lt;div&gt;&lt;b&gt;public:&lt;/b&gt; &lt;br&gt;&lt;/div&gt;&lt;div&gt;+initialize&lt;/div&gt;&lt;div&gt;+select&lt;/div&gt;&lt;div&gt;+clear_selected&lt;br&gt;&lt;/div&gt;&lt;div&gt;+get_names (abstract)&lt;br&gt;&lt;/div&gt;&lt;div&gt;+get_data&lt;/div&gt;&lt;div&gt;-list=&lt;/div&gt;&lt;div&gt;&lt;b&gt;private:&lt;/b&gt; &lt;br&gt;&lt;/div&gt;&lt;div&gt;+selected_indexes&lt;/div&gt;&lt;div&gt;-selected_indexes=&lt;/div&gt;&lt;div&gt;+index&lt;/div&gt;&lt;div&gt;-index=&lt;/div&gt;&lt;div&gt;-list&lt;br&gt;&lt;/div&gt;&lt;div&gt;+row_from_attrrs (abstract)&lt;/div&gt;&lt;div&gt;+correct_type?&lt;/div&gt;&lt;div&gt;+element_type&lt;br&gt;&lt;/div&gt;" style="text;strokeColor=none;fillColor=none;align=left;verticalAlign=top;spacingLeft=4;spacingRight=4;overflow=hidden;rotatable=0;points=[[0,0.5],[1,0.5]];portConstraint=eastwest;whiteSpace=wrap;html=1;" parent="drGPe8Ry7eNEMvqkn0kf-21" vertex="1">
          <mxGeometry y="88" width="160" height="242" as="geometry" />
        </mxCell>
        <mxCell id="drGPe8Ry7eNEMvqkn0kf-25" value="&lt;div&gt;Data_list_short_student&lt;/div&gt;" style="swimlane;fontStyle=1;align=center;verticalAlign=top;childLayout=stackLayout;horizontal=1;startSize=26;horizontalStack=0;resizeParent=1;resizeParentMax=0;resizeLast=0;collapsible=1;marginBottom=0;whiteSpace=wrap;html=1;" parent="1" vertex="1">
          <mxGeometry x="1396" y="1144" width="160" height="120" as="geometry" />
        </mxCell>
        <mxCell id="drGPe8Ry7eNEMvqkn0kf-26" value="" style="line;strokeWidth=1;fillColor=none;align=left;verticalAlign=middle;spacingTop=-1;spacingLeft=3;spacingRight=3;rotatable=0;labelPosition=right;points=[];portConstraint=eastwest;strokeColor=inherit;" parent="drGPe8Ry7eNEMvqkn0kf-25" vertex="1">
          <mxGeometry y="26" width="160" height="8" as="geometry" />
        </mxCell>
        <mxCell id="drGPe8Ry7eNEMvqkn0kf-27" value="&lt;div&gt;&lt;b&gt;public:&lt;/b&gt;&lt;br&gt;&lt;/div&gt;&lt;div&gt;+get_names&lt;/div&gt;&lt;div&gt;+row_from_attrs&lt;/div&gt;&lt;div&gt;&lt;b&gt;private:&lt;/b&gt;&lt;br&gt;&lt;/div&gt;&lt;div&gt;+element_type&lt;br&gt;&lt;/div&gt;" style="text;strokeColor=none;fillColor=none;align=left;verticalAlign=top;spacingLeft=4;spacingRight=4;overflow=hidden;rotatable=0;points=[[0,0.5],[1,0.5]];portConstraint=eastwest;whiteSpace=wrap;html=1;" parent="drGPe8Ry7eNEMvqkn0kf-25" vertex="1">
          <mxGeometry y="34" width="160" height="86" as="geometry" />
        </mxCell>
        <mxCell id="drGPe8Ry7eNEMvqkn0kf-28" style="edgeStyle=orthogonalEdgeStyle;rounded=0;orthogonalLoop=1;jettySize=auto;html=1;entryX=-0.004;entryY=0.411;entryDx=0;entryDy=0;entryPerimeter=0;endArrow=block;endFill=0;endSize=10;" parent="1" source="drGPe8Ry7eNEMvqkn0kf-25" target="drGPe8Ry7eNEMvqkn0kf-24" edge="1">
          <mxGeometry relative="1" as="geometry" />
        </mxCell>
        <mxCell id="drGPe8Ry7eNEMvqkn0kf-29" style="edgeStyle=orthogonalEdgeStyle;rounded=0;orthogonalLoop=1;jettySize=auto;html=1;dashed=1;" parent="1" edge="1">
          <mxGeometry relative="1" as="geometry">
            <mxPoint x="1021" y="1319" as="targetPoint" />
            <mxPoint x="1021" y="1505" as="sourcePoint" />
          </mxGeometry>
        </mxCell>
        <mxCell id="drGPe8Ry7eNEMvqkn0kf-30" value="&amp;lt;&amp;lt;include&amp;gt;&amp;gt;" style="text;html=1;align=center;verticalAlign=middle;resizable=0;points=[];autosize=1;strokeColor=none;fillColor=none;" parent="1" vertex="1">
          <mxGeometry x="973" y="1411" width="90" height="30" as="geometry" />
        </mxCell>
        <mxCell id="drGPe8Ry7eNEMvqkn0kf-31" value="&amp;lt;&amp;lt;include&amp;gt;&amp;gt;" style="text;html=1;align=center;verticalAlign=middle;resizable=0;points=[];autosize=1;strokeColor=none;fillColor=none;" parent="1" vertex="1">
          <mxGeometry x="1286" y="1562" width="90" height="30" as="geometry" />
        </mxCell>
        <mxCell id="drGPe8Ry7eNEMvqkn0kf-32" style="edgeStyle=orthogonalEdgeStyle;rounded=0;orthogonalLoop=1;jettySize=auto;html=1;endArrow=block;endFill=0;endSize=12;exitX=0.514;exitY=1.017;exitDx=0;exitDy=0;exitPerimeter=0;entryX=0;entryY=0.25;entryDx=0;entryDy=0;" parent="1" source="drGPe8Ry7eNEMvqkn0kf-53" target="drGPe8Ry7eNEMvqkn0kf-39" edge="1">
          <mxGeometry relative="1" as="geometry">
            <mxPoint x="475" y="2017" as="sourcePoint" />
            <mxPoint x="493" y="1793" as="targetPoint" />
            <Array as="points">
              <mxPoint x="620" y="1677" />
              <mxPoint x="719" y="1677" />
            </Array>
          </mxGeometry>
        </mxCell>
        <mxCell id="drGPe8Ry7eNEMvqkn0kf-33" style="edgeStyle=orthogonalEdgeStyle;rounded=0;orthogonalLoop=1;jettySize=auto;html=1;endArrow=block;endFill=0;endSize=12;exitX=0.5;exitY=0;exitDx=0;exitDy=0;entryX=0;entryY=0.5;entryDx=0;entryDy=0;" parent="1" source="drGPe8Ry7eNEMvqkn0kf-46" target="drGPe8Ry7eNEMvqkn0kf-39" edge="1">
          <mxGeometry relative="1" as="geometry">
            <mxPoint x="670.1176470588235" y="1709" as="sourcePoint" />
            <mxPoint x="728" y="1715" as="targetPoint" />
          </mxGeometry>
        </mxCell>
        <mxCell id="drGPe8Ry7eNEMvqkn0kf-34" style="edgeStyle=orthogonalEdgeStyle;rounded=0;orthogonalLoop=1;jettySize=auto;html=1;entryX=1.016;entryY=0.915;entryDx=0;entryDy=0;dashed=1;entryPerimeter=0;endArrow=none;endFill=0;startArrow=classic;startFill=1;" parent="1" source="drGPe8Ry7eNEMvqkn0kf-17" target="drGPe8Ry7eNEMvqkn0kf-22" edge="1">
          <mxGeometry relative="1" as="geometry">
            <mxPoint x="1859" y="1061" as="sourcePoint" />
            <mxPoint x="1769" y="1061" as="targetPoint" />
          </mxGeometry>
        </mxCell>
        <mxCell id="drGPe8Ry7eNEMvqkn0kf-35" value="&lt;font style=&quot;font-size: 10px;&quot;&gt;&amp;lt;&amp;lt;include&amp;gt;&amp;gt;&lt;/font&gt;" style="text;html=1;align=center;verticalAlign=middle;resizable=0;points=[];autosize=1;strokeColor=none;fillColor=none;" parent="1" vertex="1">
          <mxGeometry x="1782" y="1060" width="80" height="30" as="geometry" />
        </mxCell>
        <mxCell id="drGPe8Ry7eNEMvqkn0kf-36" style="edgeStyle=orthogonalEdgeStyle;rounded=0;orthogonalLoop=1;jettySize=auto;html=1;dashed=1;entryX=0.093;entryY=1.001;entryDx=0;entryDy=0;entryPerimeter=0;exitX=1.016;exitY=-0.006;exitDx=0;exitDy=0;exitPerimeter=0;" parent="1" source="drGPe8Ry7eNEMvqkn0kf-45" target="drGPe8Ry7eNEMvqkn0kf-27" edge="1">
          <mxGeometry relative="1" as="geometry">
            <mxPoint x="1287" y="1660" as="sourcePoint" />
            <mxPoint x="1410" y="1300" as="targetPoint" />
            <Array as="points">
              <mxPoint x="1117" y="1583" />
              <mxPoint x="1410" y="1583" />
              <mxPoint x="1410" y="1310" />
            </Array>
          </mxGeometry>
        </mxCell>
        <mxCell id="drGPe8Ry7eNEMvqkn0kf-37" value="" style="endArrow=none;html=1;rounded=0;exitX=0.498;exitY=1.028;exitDx=0;exitDy=0;exitPerimeter=0;entryX=-0.005;entryY=-0.017;entryDx=0;entryDy=0;entryPerimeter=0;endFill=0;startArrow=classic;startFill=1;dashed=1;" parent="1" source="drGPe8Ry7eNEMvqkn0kf-13" target="drGPe8Ry7eNEMvqkn0kf-27" edge="1">
          <mxGeometry width="50" height="50" relative="1" as="geometry">
            <mxPoint x="1333.16" y="957.9960000000001" as="sourcePoint" />
            <mxPoint x="1473" y="1355.95" as="targetPoint" />
            <Array as="points">
              <mxPoint x="1333" y="1145.98" />
              <mxPoint x="1333" y="1177" />
            </Array>
          </mxGeometry>
        </mxCell>
        <mxCell id="drGPe8Ry7eNEMvqkn0kf-38" value="&amp;lt;&amp;lt;include&amp;gt;&amp;gt;" style="text;html=1;align=center;verticalAlign=middle;resizable=0;points=[];autosize=1;strokeColor=none;fillColor=none;" parent="1" vertex="1">
          <mxGeometry x="1312" y="1171" width="90" height="30" as="geometry" />
        </mxCell>
        <mxCell id="drGPe8Ry7eNEMvqkn0kf-39" value="Source_strategy" style="swimlane;fontStyle=1;align=center;verticalAlign=top;childLayout=stackLayout;horizontal=1;startSize=26;horizontalStack=0;resizeParent=1;resizeParentMax=0;resizeLast=0;collapsible=1;marginBottom=0;whiteSpace=wrap;html=1;" parent="1" vertex="1">
          <mxGeometry x="736" y="1647" width="160" height="119" as="geometry">
            <mxRectangle x="520" y="310" width="110" height="30" as="alternateBounds" />
          </mxGeometry>
        </mxCell>
        <mxCell id="drGPe8Ry7eNEMvqkn0kf-40" value="" style="line;strokeWidth=1;fillColor=none;align=left;verticalAlign=middle;spacingTop=-1;spacingLeft=3;spacingRight=3;rotatable=0;labelPosition=right;points=[];portConstraint=eastwest;strokeColor=inherit;" parent="drGPe8Ry7eNEMvqkn0kf-39" vertex="1">
          <mxGeometry y="26" width="160" height="8" as="geometry" />
        </mxCell>
        <mxCell id="drGPe8Ry7eNEMvqkn0kf-41" value="&lt;div&gt;&lt;b&gt;public:&lt;/b&gt;&lt;/div&gt;&lt;div&gt;+read_list_of_students (abstract)&lt;br&gt;&lt;/div&gt;&lt;div&gt;+write_list_of_students (abstract)&lt;br&gt;&lt;/div&gt;" style="text;strokeColor=none;fillColor=none;align=left;verticalAlign=top;spacingLeft=4;spacingRight=4;overflow=hidden;rotatable=0;points=[[0,0.5],[1,0.5]];portConstraint=eastwest;whiteSpace=wrap;html=1;" parent="drGPe8Ry7eNEMvqkn0kf-39" vertex="1">
          <mxGeometry y="34" width="160" height="85" as="geometry" />
        </mxCell>
        <mxCell id="drGPe8Ry7eNEMvqkn0kf-42" value="&lt;div&gt;Student_list_storage&lt;/div&gt;" style="swimlane;fontStyle=1;align=center;verticalAlign=top;childLayout=stackLayout;horizontal=1;startSize=29;horizontalStack=0;resizeParent=1;resizeParentMax=0;resizeLast=0;collapsible=1;marginBottom=0;whiteSpace=wrap;html=1;" parent="1" vertex="1">
          <mxGeometry x="954" y="1506" width="160" height="337" as="geometry">
            <mxRectangle x="520" y="310" width="110" height="30" as="alternateBounds" />
          </mxGeometry>
        </mxCell>
        <mxCell id="drGPe8Ry7eNEMvqkn0kf-43" value="-strategy" style="text;strokeColor=none;fillColor=none;align=left;verticalAlign=top;spacingLeft=4;spacingRight=4;overflow=hidden;rotatable=0;points=[[0,0.5],[1,0.5]];portConstraint=eastwest;whiteSpace=wrap;html=1;" parent="drGPe8Ry7eNEMvqkn0kf-42" vertex="1">
          <mxGeometry y="29" width="160" height="28" as="geometry" />
        </mxCell>
        <mxCell id="drGPe8Ry7eNEMvqkn0kf-44" value="" style="line;strokeWidth=1;fillColor=none;align=left;verticalAlign=middle;spacingTop=-1;spacingLeft=3;spacingRight=3;rotatable=0;labelPosition=right;points=[];portConstraint=eastwest;strokeColor=inherit;" parent="drGPe8Ry7eNEMvqkn0kf-42" vertex="1">
          <mxGeometry y="57" width="160" height="8" as="geometry" />
        </mxCell>
        <mxCell id="drGPe8Ry7eNEMvqkn0kf-45" value="&lt;div&gt;&lt;b&gt;public:&lt;/b&gt;&lt;/div&gt;&lt;div&gt;+initiaize&lt;/div&gt;&lt;div&gt;+strategy&lt;/div&gt;&lt;div&gt;-strategy=&lt;br&gt;&lt;/div&gt;&lt;div&gt;+get_by_id&lt;/div&gt;&lt;div&gt;+get_k_n_student_short_list&lt;/div&gt;&lt;div&gt;+sort&lt;/div&gt;&lt;div&gt;+insert_student&lt;/div&gt;&lt;div&gt;+replace_by_id&lt;/div&gt;&lt;div&gt;+delete_by_id&lt;/div&gt;&lt;div&gt;+get_student_short_count&lt;/div&gt;&lt;div&gt;&lt;b&gt;private:&lt;/b&gt;&lt;br&gt;&lt;/div&gt;&lt;div&gt;&lt;b&gt;&lt;/b&gt;&lt;div&gt;+unique_attr?&lt;/div&gt;&lt;div&gt;+unique_git?&lt;/div&gt;&lt;div&gt;+unique_phone?&lt;/div&gt;&lt;div&gt;+unique_email?&lt;/div&gt;&lt;div&gt;+unique_telegram?&lt;/div&gt;&lt;div&gt;+unique_student?&lt;/div&gt;&lt;/div&gt;" style="text;strokeColor=none;fillColor=none;align=left;verticalAlign=top;spacingLeft=4;spacingRight=4;overflow=hidden;rotatable=0;points=[[0,0.5],[1,0.5]];portConstraint=eastwest;whiteSpace=wrap;html=1;" parent="drGPe8Ry7eNEMvqkn0kf-42" vertex="1">
          <mxGeometry y="65" width="160" height="272" as="geometry" />
        </mxCell>
        <mxCell id="drGPe8Ry7eNEMvqkn0kf-46" value="YAML_strategy" style="swimlane;fontStyle=1;align=center;verticalAlign=top;childLayout=stackLayout;horizontal=1;startSize=26;horizontalStack=0;resizeParent=1;resizeParentMax=0;resizeLast=0;collapsible=1;marginBottom=0;whiteSpace=wrap;html=1;" parent="1" vertex="1">
          <mxGeometry x="538" y="1730" width="160" height="127" as="geometry">
            <mxRectangle x="520" y="310" width="110" height="30" as="alternateBounds" />
          </mxGeometry>
        </mxCell>
        <mxCell id="drGPe8Ry7eNEMvqkn0kf-47" value="-path" style="text;strokeColor=none;fillColor=none;align=left;verticalAlign=top;spacingLeft=4;spacingRight=4;overflow=hidden;rotatable=0;points=[[0,0.5],[1,0.5]];portConstraint=eastwest;whiteSpace=wrap;html=1;" parent="drGPe8Ry7eNEMvqkn0kf-46" vertex="1">
          <mxGeometry y="26" width="160" height="34" as="geometry" />
        </mxCell>
        <mxCell id="drGPe8Ry7eNEMvqkn0kf-48" value="" style="line;strokeWidth=1;fillColor=none;align=left;verticalAlign=middle;spacingTop=-1;spacingLeft=3;spacingRight=3;rotatable=0;labelPosition=right;points=[];portConstraint=eastwest;strokeColor=inherit;" parent="drGPe8Ry7eNEMvqkn0kf-46" vertex="1">
          <mxGeometry y="60" width="160" height="8" as="geometry" />
        </mxCell>
        <mxCell id="drGPe8Ry7eNEMvqkn0kf-49" value="&lt;div&gt;&lt;b&gt;public:&lt;/b&gt;&lt;/div&gt;&lt;div&gt;+read_list_of_students&lt;/div&gt;&lt;div&gt;+write_list_of_students&lt;b&gt;&lt;br&gt;&lt;/b&gt;&lt;/div&gt;" style="text;strokeColor=none;fillColor=none;align=left;verticalAlign=top;spacingLeft=4;spacingRight=4;overflow=hidden;rotatable=0;points=[[0,0.5],[1,0.5]];portConstraint=eastwest;whiteSpace=wrap;html=1;" parent="drGPe8Ry7eNEMvqkn0kf-46" vertex="1">
          <mxGeometry y="68" width="160" height="59" as="geometry" />
        </mxCell>
        <mxCell id="drGPe8Ry7eNEMvqkn0kf-50" value="JSON_strategy" style="swimlane;fontStyle=1;align=center;verticalAlign=top;childLayout=stackLayout;horizontal=1;startSize=26;horizontalStack=0;resizeParent=1;resizeParentMax=0;resizeLast=0;collapsible=1;marginBottom=0;whiteSpace=wrap;html=1;" parent="1" vertex="1">
          <mxGeometry x="538" y="1531.5" width="160" height="127" as="geometry">
            <mxRectangle x="520" y="310" width="110" height="30" as="alternateBounds" />
          </mxGeometry>
        </mxCell>
        <mxCell id="drGPe8Ry7eNEMvqkn0kf-51" value="-path" style="text;strokeColor=none;fillColor=none;align=left;verticalAlign=top;spacingLeft=4;spacingRight=4;overflow=hidden;rotatable=0;points=[[0,0.5],[1,0.5]];portConstraint=eastwest;whiteSpace=wrap;html=1;" parent="drGPe8Ry7eNEMvqkn0kf-50" vertex="1">
          <mxGeometry y="26" width="160" height="34" as="geometry" />
        </mxCell>
        <mxCell id="drGPe8Ry7eNEMvqkn0kf-52" value="" style="line;strokeWidth=1;fillColor=none;align=left;verticalAlign=middle;spacingTop=-1;spacingLeft=3;spacingRight=3;rotatable=0;labelPosition=right;points=[];portConstraint=eastwest;strokeColor=inherit;" parent="drGPe8Ry7eNEMvqkn0kf-50" vertex="1">
          <mxGeometry y="60" width="160" height="8" as="geometry" />
        </mxCell>
        <mxCell id="drGPe8Ry7eNEMvqkn0kf-53" value="&lt;div&gt;&lt;b&gt;public:&lt;/b&gt;&lt;/div&gt;&lt;div&gt;+read_list_of_students&lt;/div&gt;&lt;div&gt;+write_list_of_students&lt;b&gt;&lt;br&gt;&lt;/b&gt;&lt;/div&gt;" style="text;strokeColor=none;fillColor=none;align=left;verticalAlign=top;spacingLeft=4;spacingRight=4;overflow=hidden;rotatable=0;points=[[0,0.5],[1,0.5]];portConstraint=eastwest;whiteSpace=wrap;html=1;" parent="drGPe8Ry7eNEMvqkn0kf-50" vertex="1">
          <mxGeometry y="68" width="160" height="59" as="geometry" />
        </mxCell>
        <mxCell id="drGPe8Ry7eNEMvqkn0kf-54" style="edgeStyle=orthogonalEdgeStyle;rounded=0;orthogonalLoop=1;jettySize=auto;html=1;entryX=0.001;entryY=0.643;entryDx=0;entryDy=0;entryPerimeter=0;endArrow=diamondThin;endFill=0;startArrow=none;startFill=0;endSize=20;startSize=20;" parent="1" source="drGPe8Ry7eNEMvqkn0kf-41" target="drGPe8Ry7eNEMvqkn0kf-45" edge="1">
          <mxGeometry relative="1" as="geometry" />
        </mxCell>
        <mxCell id="drGPe8Ry7eNEMvqkn0kf-55" value="PG_client" style="swimlane;fontStyle=1;align=center;verticalAlign=top;childLayout=stackLayout;horizontal=1;startSize=26;horizontalStack=0;resizeParent=1;resizeParentMax=0;resizeLast=0;collapsible=1;marginBottom=0;whiteSpace=wrap;html=1;" parent="1" vertex="1">
          <mxGeometry x="2054" y="1581" width="160" height="180" as="geometry">
            <mxRectangle x="520" y="310" width="110" height="30" as="alternateBounds" />
          </mxGeometry>
        </mxCell>
        <mxCell id="drGPe8Ry7eNEMvqkn0kf-56" value="&lt;div&gt;-instance&lt;/div&gt;&lt;div&gt;&lt;br&gt;&lt;/div&gt;" style="text;strokeColor=none;fillColor=none;align=left;verticalAlign=top;spacingLeft=4;spacingRight=4;overflow=hidden;rotatable=0;points=[[0,0.5],[1,0.5]];portConstraint=eastwest;whiteSpace=wrap;html=1;" parent="drGPe8Ry7eNEMvqkn0kf-55" vertex="1">
          <mxGeometry y="26" width="160" height="34" as="geometry" />
        </mxCell>
        <mxCell id="drGPe8Ry7eNEMvqkn0kf-57" value="" style="line;strokeWidth=1;fillColor=none;align=left;verticalAlign=middle;spacingTop=-1;spacingLeft=3;spacingRight=3;rotatable=0;labelPosition=right;points=[];portConstraint=eastwest;strokeColor=inherit;" parent="drGPe8Ry7eNEMvqkn0kf-55" vertex="1">
          <mxGeometry y="60" width="160" height="8" as="geometry" />
        </mxCell>
        <mxCell id="drGPe8Ry7eNEMvqkn0kf-58" value="&lt;div&gt;&lt;b&gt;public:&lt;/b&gt;&lt;/div&gt;&lt;div&gt;+exec&lt;/div&gt;&lt;div&gt;+exec_params&lt;/div&gt;&lt;div&gt;-self.instance&lt;br&gt;&lt;/div&gt;&lt;div&gt;+close&lt;/div&gt;&lt;div&gt;&lt;b&gt;private:&lt;br&gt;&lt;/b&gt;+initialize&lt;br&gt;&lt;/div&gt;" style="text;strokeColor=none;fillColor=none;align=left;verticalAlign=top;spacingLeft=4;spacingRight=4;overflow=hidden;rotatable=0;points=[[0,0.5],[1,0.5]];portConstraint=eastwest;whiteSpace=wrap;html=1;" parent="drGPe8Ry7eNEMvqkn0kf-55" vertex="1">
          <mxGeometry y="68" width="160" height="112" as="geometry" />
        </mxCell>
        <mxCell id="drGPe8Ry7eNEMvqkn0kf-59" style="edgeStyle=orthogonalEdgeStyle;rounded=0;orthogonalLoop=1;jettySize=auto;html=1;dashed=1;exitX=0.487;exitY=1.02;exitDx=0;exitDy=0;exitPerimeter=0;entryX=-0.013;entryY=0.836;entryDx=0;entryDy=0;entryPerimeter=0;" parent="1" source="drGPe8Ry7eNEMvqkn0kf-63" target="drGPe8Ry7eNEMvqkn0kf-9" edge="1">
          <mxGeometry relative="1" as="geometry">
            <mxPoint x="1791.06" y="2083" as="sourcePoint" />
            <mxPoint x="790" y="1350" as="targetPoint" />
            <Array as="points">
              <mxPoint x="1792" y="2030" />
              <mxPoint x="485" y="2030" />
              <mxPoint x="485" y="1270" />
            </Array>
          </mxGeometry>
        </mxCell>
        <mxCell id="drGPe8Ry7eNEMvqkn0kf-60" value="Student_list_db_adapter" style="swimlane;fontStyle=1;align=center;verticalAlign=top;childLayout=stackLayout;horizontal=1;startSize=26;horizontalStack=0;resizeParent=1;resizeParentMax=0;resizeLast=0;collapsible=1;marginBottom=0;whiteSpace=wrap;html=1;" parent="1" vertex="1">
          <mxGeometry x="1714" y="1581" width="160" height="300" as="geometry">
            <mxRectangle x="520" y="310" width="110" height="30" as="alternateBounds" />
          </mxGeometry>
        </mxCell>
        <mxCell id="drGPe8Ry7eNEMvqkn0kf-61" value="-client" style="text;strokeColor=none;fillColor=none;align=left;verticalAlign=top;spacingLeft=4;spacingRight=4;overflow=hidden;rotatable=0;points=[[0,0.5],[1,0.5]];portConstraint=eastwest;whiteSpace=wrap;html=1;" parent="drGPe8Ry7eNEMvqkn0kf-60" vertex="1">
          <mxGeometry y="26" width="160" height="34" as="geometry" />
        </mxCell>
        <mxCell id="drGPe8Ry7eNEMvqkn0kf-62" value="" style="line;strokeWidth=1;fillColor=none;align=left;verticalAlign=middle;spacingTop=-1;spacingLeft=3;spacingRight=3;rotatable=0;labelPosition=right;points=[];portConstraint=eastwest;strokeColor=inherit;" parent="drGPe8Ry7eNEMvqkn0kf-60" vertex="1">
          <mxGeometry y="60" width="160" height="8" as="geometry" />
        </mxCell>
        <mxCell id="drGPe8Ry7eNEMvqkn0kf-63" value="&lt;div&gt;&lt;b&gt;public:&lt;/b&gt;&lt;/div&gt;&lt;div&gt;+initiaize&lt;/div&gt;&lt;div&gt;+get_by_id&lt;/div&gt;&lt;div&gt;+get_k_n_student_short_list&lt;/div&gt;&lt;div&gt;+insert_student&lt;/div&gt;&lt;div&gt;+replace_by_id&lt;/div&gt;&lt;div&gt;+delete_by_id&lt;/div&gt;&lt;div&gt;+get_student_short_count&lt;/div&gt;&lt;div&gt;&lt;b&gt;private:&lt;/b&gt;&lt;/div&gt;&lt;div&gt;+unique_attr?&lt;/div&gt;&lt;div&gt;+unique_git?&lt;/div&gt;&lt;div&gt;+unique_phone?&lt;/div&gt;&lt;div&gt;+unique_email?&lt;/div&gt;&lt;div&gt;+unique_telegram?&lt;/div&gt;&lt;div&gt;+unique_student?&lt;br&gt;&lt;/div&gt;" style="text;strokeColor=none;fillColor=none;align=left;verticalAlign=top;spacingLeft=4;spacingRight=4;overflow=hidden;rotatable=0;points=[[0,0.5],[1,0.5]];portConstraint=eastwest;whiteSpace=wrap;html=1;" parent="drGPe8Ry7eNEMvqkn0kf-60" vertex="1">
          <mxGeometry y="68" width="160" height="232" as="geometry" />
        </mxCell>
        <mxCell id="drGPe8Ry7eNEMvqkn0kf-64" style="edgeStyle=orthogonalEdgeStyle;rounded=0;orthogonalLoop=1;jettySize=auto;html=1;entryX=0;entryY=0.5;entryDx=0;entryDy=0;endArrow=none;endFill=0;endSize=20;startArrow=diamondThin;startFill=1;startSize=22;" parent="1" source="drGPe8Ry7eNEMvqkn0kf-61" target="drGPe8Ry7eNEMvqkn0kf-56" edge="1">
          <mxGeometry relative="1" as="geometry" />
        </mxCell>
        <mxCell id="drGPe8Ry7eNEMvqkn0kf-65" value="&amp;lt;&amp;lt;include&amp;gt;&amp;gt;" style="text;html=1;align=center;verticalAlign=middle;resizable=0;points=[];autosize=1;strokeColor=none;fillColor=none;" parent="1" vertex="1">
          <mxGeometry x="1740" y="1950" width="90" height="30" as="geometry" />
        </mxCell>
        <mxCell id="drGPe8Ry7eNEMvqkn0kf-68" value="Student_list_interface" style="swimlane;fontStyle=1;align=center;verticalAlign=top;childLayout=stackLayout;horizontal=1;startSize=26;horizontalStack=0;resizeParent=1;resizeParentMax=0;resizeLast=0;collapsible=1;marginBottom=0;whiteSpace=wrap;html=1;" parent="1" vertex="1">
          <mxGeometry x="1402.64" y="2110" width="160" height="195" as="geometry">
            <mxRectangle x="520" y="310" width="110" height="30" as="alternateBounds" />
          </mxGeometry>
        </mxCell>
        <mxCell id="drGPe8Ry7eNEMvqkn0kf-70" value="" style="line;strokeWidth=1;fillColor=none;align=left;verticalAlign=middle;spacingTop=-1;spacingLeft=3;spacingRight=3;rotatable=0;labelPosition=right;points=[];portConstraint=eastwest;strokeColor=inherit;" parent="drGPe8Ry7eNEMvqkn0kf-68" vertex="1">
          <mxGeometry y="26" width="160" height="8" as="geometry" />
        </mxCell>
        <mxCell id="drGPe8Ry7eNEMvqkn0kf-71" value="&lt;div&gt;&lt;b&gt;public:&lt;/b&gt;&lt;/div&gt;&lt;div&gt;+get_by_id (abstr)&lt;/div&gt;&lt;div&gt;+get_k_n_student_short_list (abstr)&lt;/div&gt;&lt;div&gt;+sort (abstr)&lt;/div&gt;&lt;div&gt;+insert_student (abstr)&lt;/div&gt;&lt;div&gt;+replace_by_id (abstr)&lt;/div&gt;&lt;div&gt;+delete_by_id (abstr)&lt;/div&gt;&lt;div&gt;+get_student_short_count (abstr)&lt;/div&gt;" style="text;strokeColor=none;fillColor=none;align=left;verticalAlign=top;spacingLeft=4;spacingRight=4;overflow=hidden;rotatable=0;points=[[0,0.5],[1,0.5]];portConstraint=eastwest;whiteSpace=wrap;html=1;" parent="drGPe8Ry7eNEMvqkn0kf-68" vertex="1">
          <mxGeometry y="34" width="160" height="161" as="geometry" />
        </mxCell>
        <mxCell id="drGPe8Ry7eNEMvqkn0kf-84" style="edgeStyle=orthogonalEdgeStyle;rounded=0;orthogonalLoop=1;jettySize=auto;html=1;endArrow=none;endFill=0;startArrow=block;startFill=0;endSize=9;startSize=12;entryX=0.336;entryY=1.004;entryDx=0;entryDy=0;entryPerimeter=0;dashed=1;" parent="1" source="drGPe8Ry7eNEMvqkn0kf-71" target="V-MERQLC2YbsY9sH2OM7-4" edge="1">
          <mxGeometry relative="1" as="geometry">
            <mxPoint x="1260" y="1940" as="targetPoint" />
            <Array as="points">
              <mxPoint x="1268" y="2225" />
            </Array>
          </mxGeometry>
        </mxCell>
        <mxCell id="drGPe8Ry7eNEMvqkn0kf-85" style="edgeStyle=orthogonalEdgeStyle;rounded=0;orthogonalLoop=1;jettySize=auto;html=1;entryX=0.038;entryY=1.001;entryDx=0;entryDy=0;endArrow=none;endFill=0;startArrow=block;startFill=0;startSize=12;entryPerimeter=0;dashed=1;" parent="1" source="drGPe8Ry7eNEMvqkn0kf-71" target="drGPe8Ry7eNEMvqkn0kf-63" edge="1">
          <mxGeometry relative="1" as="geometry">
            <mxPoint x="1692.64" y="2090" as="targetPoint" />
            <Array as="points">
              <mxPoint x="1720" y="2252" />
            </Array>
          </mxGeometry>
        </mxCell>
        <mxCell id="drGPe8Ry7eNEMvqkn0kf-86" value="&lt;div&gt;Student_list&lt;/div&gt;" style="swimlane;fontStyle=1;align=center;verticalAlign=top;childLayout=stackLayout;horizontal=1;startSize=40;horizontalStack=0;resizeParent=1;resizeParentMax=0;resizeLast=0;collapsible=1;marginBottom=0;whiteSpace=wrap;html=1;" parent="1" vertex="1">
          <mxGeometry x="1402" y="2387" width="160" height="260" as="geometry">
            <mxRectangle x="520" y="310" width="110" height="30" as="alternateBounds" />
          </mxGeometry>
        </mxCell>
        <mxCell id="drGPe8Ry7eNEMvqkn0kf-87" value="-adapter" style="text;strokeColor=none;fillColor=none;align=left;verticalAlign=top;spacingLeft=4;spacingRight=4;overflow=hidden;rotatable=0;points=[[0,0.5],[1,0.5]];portConstraint=eastwest;whiteSpace=wrap;html=1;" parent="drGPe8Ry7eNEMvqkn0kf-86" vertex="1">
          <mxGeometry y="40" width="160" height="34" as="geometry" />
        </mxCell>
        <mxCell id="drGPe8Ry7eNEMvqkn0kf-88" value="" style="line;strokeWidth=1;fillColor=none;align=left;verticalAlign=middle;spacingTop=-1;spacingLeft=3;spacingRight=3;rotatable=0;labelPosition=right;points=[];portConstraint=eastwest;strokeColor=inherit;" parent="drGPe8Ry7eNEMvqkn0kf-86" vertex="1">
          <mxGeometry y="74" width="160" height="8" as="geometry" />
        </mxCell>
        <mxCell id="drGPe8Ry7eNEMvqkn0kf-89" value="&lt;div&gt;&lt;b&gt;public:&lt;/b&gt;&lt;/div&gt;&lt;div&gt;+initiaize&lt;b&gt;&lt;br&gt;&lt;/b&gt;&lt;/div&gt;&lt;div&gt;+read_list_of_students&lt;br&gt;&lt;/div&gt;&lt;div&gt;+write_list_of_students&lt;/div&gt;&lt;div&gt;+get_by_id&lt;br&gt;&lt;/div&gt;&lt;div&gt;+get_k_n_student_short_list&lt;br&gt;&lt;/div&gt;&lt;div&gt;+sort &lt;br&gt;&lt;/div&gt;&lt;div&gt;+insert_student&lt;br&gt;&lt;/div&gt;&lt;div&gt;+replace_by_id &lt;br&gt;&lt;/div&gt;&lt;div&gt;+delete_by_id&lt;br&gt;&lt;/div&gt;&lt;div&gt;+get_student_short_count&lt;br&gt;&lt;/div&gt;" style="text;strokeColor=none;fillColor=none;align=left;verticalAlign=top;spacingLeft=4;spacingRight=4;overflow=hidden;rotatable=0;points=[[0,0.5],[1,0.5]];portConstraint=eastwest;whiteSpace=wrap;html=1;" parent="drGPe8Ry7eNEMvqkn0kf-86" vertex="1">
          <mxGeometry y="82" width="160" height="178" as="geometry" />
        </mxCell>
        <mxCell id="drGPe8Ry7eNEMvqkn0kf-90" style="edgeStyle=orthogonalEdgeStyle;rounded=0;orthogonalLoop=1;jettySize=auto;html=1;entryX=0.498;entryY=1.002;entryDx=0;entryDy=0;entryPerimeter=0;endSize=12;endArrow=block;endFill=0;dashed=1;" parent="1" source="drGPe8Ry7eNEMvqkn0kf-86" target="drGPe8Ry7eNEMvqkn0kf-71" edge="1">
          <mxGeometry relative="1" as="geometry" />
        </mxCell>
        <mxCell id="WSD1wgVczUqYiyafYBvP-1" value="Filter" style="swimlane;fontStyle=1;align=center;verticalAlign=top;childLayout=stackLayout;horizontal=1;startSize=26;horizontalStack=0;resizeParent=1;resizeParentMax=0;resizeLast=0;collapsible=1;marginBottom=0;whiteSpace=wrap;html=1;" parent="1" vertex="1">
          <mxGeometry x="1762" y="2199" width="160" height="146" as="geometry">
            <mxRectangle x="520" y="310" width="110" height="30" as="alternateBounds" />
          </mxGeometry>
        </mxCell>
        <mxCell id="WSD1wgVczUqYiyafYBvP-3" value="" style="line;strokeWidth=1;fillColor=none;align=left;verticalAlign=middle;spacingTop=-1;spacingLeft=3;spacingRight=3;rotatable=0;labelPosition=right;points=[];portConstraint=eastwest;strokeColor=inherit;" parent="WSD1wgVczUqYiyafYBvP-1" vertex="1">
          <mxGeometry y="26" width="160" height="8" as="geometry" />
        </mxCell>
        <mxCell id="WSD1wgVczUqYiyafYBvP-4" value="&lt;div&gt;&lt;b&gt;public:&lt;/b&gt;&lt;/div&gt;&lt;div&gt;+initialize&lt;b&gt;&lt;br&gt;&lt;/b&gt;&lt;/div&gt;&lt;div&gt;+apply&lt;br&gt;&lt;/div&gt;" style="text;strokeColor=none;fillColor=none;align=left;verticalAlign=top;spacingLeft=4;spacingRight=4;overflow=hidden;rotatable=0;points=[[0,0.5],[1,0.5]];portConstraint=eastwest;whiteSpace=wrap;html=1;" parent="WSD1wgVczUqYiyafYBvP-1" vertex="1">
          <mxGeometry y="34" width="160" height="112" as="geometry" />
        </mxCell>
        <mxCell id="WSD1wgVczUqYiyafYBvP-5" value="Decorator" style="swimlane;fontStyle=1;align=center;verticalAlign=top;childLayout=stackLayout;horizontal=1;startSize=26;horizontalStack=0;resizeParent=1;resizeParentMax=0;resizeLast=0;collapsible=1;marginBottom=0;whiteSpace=wrap;html=1;" parent="1" vertex="1">
          <mxGeometry x="2012" y="2184" width="160" height="180" as="geometry">
            <mxRectangle x="520" y="310" width="110" height="30" as="alternateBounds" />
          </mxGeometry>
        </mxCell>
        <mxCell id="WSD1wgVczUqYiyafYBvP-6" value="&lt;div&gt;-filter&lt;/div&gt;&lt;div&gt;&lt;br&gt;&lt;/div&gt;" style="text;strokeColor=none;fillColor=none;align=left;verticalAlign=top;spacingLeft=4;spacingRight=4;overflow=hidden;rotatable=0;points=[[0,0.5],[1,0.5]];portConstraint=eastwest;whiteSpace=wrap;html=1;" parent="WSD1wgVczUqYiyafYBvP-5" vertex="1">
          <mxGeometry y="26" width="160" height="34" as="geometry" />
        </mxCell>
        <mxCell id="WSD1wgVczUqYiyafYBvP-7" value="" style="line;strokeWidth=1;fillColor=none;align=left;verticalAlign=middle;spacingTop=-1;spacingLeft=3;spacingRight=3;rotatable=0;labelPosition=right;points=[];portConstraint=eastwest;strokeColor=inherit;" parent="WSD1wgVczUqYiyafYBvP-5" vertex="1">
          <mxGeometry y="60" width="160" height="8" as="geometry" />
        </mxCell>
        <mxCell id="WSD1wgVczUqYiyafYBvP-8" value="&lt;div&gt;&lt;b&gt;public:&lt;/b&gt;&lt;/div&gt;&lt;div&gt;+initialize&lt;b&gt;&lt;br&gt;&lt;/b&gt;&lt;/div&gt;&lt;div&gt;+apply&lt;/div&gt;&lt;div&gt;+filter=&lt;/div&gt;&lt;div&gt;+filter&lt;br&gt;&lt;/div&gt;" style="text;strokeColor=none;fillColor=none;align=left;verticalAlign=top;spacingLeft=4;spacingRight=4;overflow=hidden;rotatable=0;points=[[0,0.5],[1,0.5]];portConstraint=eastwest;whiteSpace=wrap;html=1;" parent="WSD1wgVczUqYiyafYBvP-5" vertex="1">
          <mxGeometry y="68" width="160" height="112" as="geometry" />
        </mxCell>
        <mxCell id="WSD1wgVczUqYiyafYBvP-9" style="edgeStyle=orthogonalEdgeStyle;rounded=0;orthogonalLoop=1;jettySize=auto;html=1;entryX=0;entryY=0.179;entryDx=0;entryDy=0;entryPerimeter=0;endArrow=block;endFill=0;endSize=12;" parent="1" source="WSD1wgVczUqYiyafYBvP-1" target="WSD1wgVczUqYiyafYBvP-8" edge="1">
          <mxGeometry relative="1" as="geometry" />
        </mxCell>
        <mxCell id="WSD1wgVczUqYiyafYBvP-10" value="Has_contact_decorator" style="swimlane;fontStyle=1;align=center;verticalAlign=top;childLayout=stackLayout;horizontal=1;startSize=26;horizontalStack=0;resizeParent=1;resizeParentMax=0;resizeLast=0;collapsible=1;marginBottom=0;whiteSpace=wrap;html=1;" parent="1" vertex="1">
          <mxGeometry x="2192" y="1973" width="160" height="180" as="geometry">
            <mxRectangle x="520" y="310" width="110" height="30" as="alternateBounds" />
          </mxGeometry>
        </mxCell>
        <mxCell id="WSD1wgVczUqYiyafYBvP-11" value="&lt;div&gt;-filter&lt;/div&gt;&lt;div&gt;&lt;br&gt;&lt;/div&gt;" style="text;strokeColor=none;fillColor=none;align=left;verticalAlign=top;spacingLeft=4;spacingRight=4;overflow=hidden;rotatable=0;points=[[0,0.5],[1,0.5]];portConstraint=eastwest;whiteSpace=wrap;html=1;" parent="WSD1wgVczUqYiyafYBvP-10" vertex="1">
          <mxGeometry y="26" width="160" height="34" as="geometry" />
        </mxCell>
        <mxCell id="WSD1wgVczUqYiyafYBvP-12" value="" style="line;strokeWidth=1;fillColor=none;align=left;verticalAlign=middle;spacingTop=-1;spacingLeft=3;spacingRight=3;rotatable=0;labelPosition=right;points=[];portConstraint=eastwest;strokeColor=inherit;" parent="WSD1wgVczUqYiyafYBvP-10" vertex="1">
          <mxGeometry y="60" width="160" height="8" as="geometry" />
        </mxCell>
        <mxCell id="WSD1wgVczUqYiyafYBvP-13" value="&lt;div&gt;&lt;b&gt;public:&lt;/b&gt;&lt;/div&gt;&lt;div&gt;+initialize&lt;b&gt;&lt;br&gt;&lt;/b&gt;&lt;/div&gt;&lt;div&gt;+apply&lt;/div&gt;&lt;div&gt;+filter=&lt;/div&gt;&lt;div&gt;+filter&lt;br&gt;&lt;/div&gt;" style="text;strokeColor=none;fillColor=none;align=left;verticalAlign=top;spacingLeft=4;spacingRight=4;overflow=hidden;rotatable=0;points=[[0,0.5],[1,0.5]];portConstraint=eastwest;whiteSpace=wrap;html=1;" parent="WSD1wgVczUqYiyafYBvP-10" vertex="1">
          <mxGeometry y="68" width="160" height="112" as="geometry" />
        </mxCell>
        <mxCell id="WSD1wgVczUqYiyafYBvP-14" value="Has_git_decorator" style="swimlane;fontStyle=1;align=center;verticalAlign=top;childLayout=stackLayout;horizontal=1;startSize=26;horizontalStack=0;resizeParent=1;resizeParentMax=0;resizeLast=0;collapsible=1;marginBottom=0;whiteSpace=wrap;html=1;" parent="1" vertex="1">
          <mxGeometry x="2202" y="2389" width="160" height="180" as="geometry">
            <mxRectangle x="520" y="310" width="110" height="30" as="alternateBounds" />
          </mxGeometry>
        </mxCell>
        <mxCell id="WSD1wgVczUqYiyafYBvP-15" value="&lt;div&gt;-filter&lt;/div&gt;&lt;div&gt;&lt;br&gt;&lt;/div&gt;" style="text;strokeColor=none;fillColor=none;align=left;verticalAlign=top;spacingLeft=4;spacingRight=4;overflow=hidden;rotatable=0;points=[[0,0.5],[1,0.5]];portConstraint=eastwest;whiteSpace=wrap;html=1;" parent="WSD1wgVczUqYiyafYBvP-14" vertex="1">
          <mxGeometry y="26" width="160" height="34" as="geometry" />
        </mxCell>
        <mxCell id="WSD1wgVczUqYiyafYBvP-16" value="" style="line;strokeWidth=1;fillColor=none;align=left;verticalAlign=middle;spacingTop=-1;spacingLeft=3;spacingRight=3;rotatable=0;labelPosition=right;points=[];portConstraint=eastwest;strokeColor=inherit;" parent="WSD1wgVczUqYiyafYBvP-14" vertex="1">
          <mxGeometry y="60" width="160" height="8" as="geometry" />
        </mxCell>
        <mxCell id="WSD1wgVczUqYiyafYBvP-17" value="&lt;div&gt;&lt;b&gt;public:&lt;/b&gt;&lt;/div&gt;&lt;div&gt;+initialize&lt;b&gt;&lt;br&gt;&lt;/b&gt;&lt;/div&gt;&lt;div&gt;+apply&lt;/div&gt;&lt;div&gt;+filter=&lt;/div&gt;&lt;div&gt;+filter&lt;br&gt;&lt;/div&gt;" style="text;strokeColor=none;fillColor=none;align=left;verticalAlign=top;spacingLeft=4;spacingRight=4;overflow=hidden;rotatable=0;points=[[0,0.5],[1,0.5]];portConstraint=eastwest;whiteSpace=wrap;html=1;" parent="WSD1wgVczUqYiyafYBvP-14" vertex="1">
          <mxGeometry y="68" width="160" height="112" as="geometry" />
        </mxCell>
        <mxCell id="WSD1wgVczUqYiyafYBvP-18" style="edgeStyle=orthogonalEdgeStyle;rounded=0;orthogonalLoop=1;jettySize=auto;html=1;entryX=0;entryY=0.339;entryDx=0;entryDy=0;entryPerimeter=0;endArrow=block;endFill=0;endSize=12;" parent="1" source="WSD1wgVczUqYiyafYBvP-5" target="WSD1wgVczUqYiyafYBvP-13" edge="1">
          <mxGeometry relative="1" as="geometry" />
        </mxCell>
        <mxCell id="WSD1wgVczUqYiyafYBvP-19" style="edgeStyle=orthogonalEdgeStyle;rounded=0;orthogonalLoop=1;jettySize=auto;html=1;entryX=-0.007;entryY=0.265;entryDx=0;entryDy=0;entryPerimeter=0;endArrow=block;endFill=0;endSize=12;exitX=0.521;exitY=1.008;exitDx=0;exitDy=0;exitPerimeter=0;" parent="1" source="WSD1wgVczUqYiyafYBvP-8" target="WSD1wgVczUqYiyafYBvP-17" edge="1">
          <mxGeometry relative="1" as="geometry">
            <mxPoint x="2052" y="2524" as="sourcePoint" />
            <mxPoint x="2152" y="2419" as="targetPoint" />
          </mxGeometry>
        </mxCell>
        <mxCell id="WSD1wgVczUqYiyafYBvP-20" style="edgeStyle=orthogonalEdgeStyle;rounded=0;orthogonalLoop=1;jettySize=auto;html=1;entryX=0.498;entryY=0.992;entryDx=0;entryDy=0;entryPerimeter=0;dashed=1;" parent="1" source="drGPe8Ry7eNEMvqkn0kf-89" target="WSD1wgVczUqYiyafYBvP-4" edge="1">
          <mxGeometry relative="1" as="geometry" />
        </mxCell>
        <mxCell id="WSD1wgVczUqYiyafYBvP-21" value="&amp;lt;&amp;lt;include&amp;gt;&amp;gt;" style="edgeLabel;html=1;align=center;verticalAlign=middle;resizable=0;points=[];" parent="WSD1wgVczUqYiyafYBvP-20" vertex="1" connectable="0">
          <mxGeometry x="0.2724" y="-2" relative="1" as="geometry">
            <mxPoint as="offset" />
          </mxGeometry>
        </mxCell>
        <mxCell id="V-MERQLC2YbsY9sH2OM7-1" value="&lt;div&gt;Student_list_&lt;/div&gt;&lt;div&gt;storage_adapter&lt;/div&gt;" style="swimlane;fontStyle=1;align=center;verticalAlign=top;childLayout=stackLayout;horizontal=1;startSize=39;horizontalStack=0;resizeParent=1;resizeParentMax=0;resizeLast=0;collapsible=1;marginBottom=0;whiteSpace=wrap;html=1;" vertex="1" parent="1">
          <mxGeometry x="1214" y="1608" width="160" height="229" as="geometry">
            <mxRectangle x="520" y="310" width="110" height="30" as="alternateBounds" />
          </mxGeometry>
        </mxCell>
        <mxCell id="V-MERQLC2YbsY9sH2OM7-2" value="-storage" style="text;strokeColor=none;fillColor=none;align=left;verticalAlign=top;spacingLeft=4;spacingRight=4;overflow=hidden;rotatable=0;points=[[0,0.5],[1,0.5]];portConstraint=eastwest;whiteSpace=wrap;html=1;" vertex="1" parent="V-MERQLC2YbsY9sH2OM7-1">
          <mxGeometry y="39" width="160" height="34" as="geometry" />
        </mxCell>
        <mxCell id="V-MERQLC2YbsY9sH2OM7-3" value="" style="line;strokeWidth=1;fillColor=none;align=left;verticalAlign=middle;spacingTop=-1;spacingLeft=3;spacingRight=3;rotatable=0;labelPosition=right;points=[];portConstraint=eastwest;strokeColor=inherit;" vertex="1" parent="V-MERQLC2YbsY9sH2OM7-1">
          <mxGeometry y="73" width="160" height="8" as="geometry" />
        </mxCell>
        <mxCell id="V-MERQLC2YbsY9sH2OM7-4" value="&lt;div&gt;&lt;b&gt;public:&lt;/b&gt;&lt;/div&gt;&lt;div&gt;+initiaize&lt;/div&gt;&lt;div&gt;+get_by_id&lt;/div&gt;&lt;div&gt;+get_k_n_student_short_list&lt;/div&gt;&lt;div&gt;+sort&lt;/div&gt;&lt;div&gt;+insert_student&lt;/div&gt;&lt;div&gt;+replace_by_id&lt;/div&gt;&lt;div&gt;+delete_by_id&lt;/div&gt;&lt;div&gt;+get_student_short_count&lt;/div&gt;" style="text;strokeColor=none;fillColor=none;align=left;verticalAlign=top;spacingLeft=4;spacingRight=4;overflow=hidden;rotatable=0;points=[[0,0.5],[1,0.5]];portConstraint=eastwest;whiteSpace=wrap;html=1;" vertex="1" parent="V-MERQLC2YbsY9sH2OM7-1">
          <mxGeometry y="81" width="160" height="148" as="geometry" />
        </mxCell>
        <mxCell id="V-MERQLC2YbsY9sH2OM7-8" style="edgeStyle=orthogonalEdgeStyle;rounded=0;orthogonalLoop=1;jettySize=auto;html=1;entryX=1.005;entryY=0.649;entryDx=0;entryDy=0;entryPerimeter=0;endArrow=none;endFill=0;startArrow=diamondThin;startFill=1;sourcePerimeterSpacing=0;startSize=20;" edge="1" parent="1" source="V-MERQLC2YbsY9sH2OM7-4" target="drGPe8Ry7eNEMvqkn0kf-45">
          <mxGeometry relative="1" as="geometry" />
        </mxCell>
      </root>
    </mxGraphModel>
  </diagram>
</mxfile>
